<svg data-v-423bf9ae="" xmlns="http://www.w3.org/2000/svg" viewBox="0 0 451 103" class="iconLeft"><!----><!----><!----><g data-v-423bf9ae="" id="3fd0b84c-3f05-4913-bbd2-c0b91da878b0" fill="#25BBA8" transform="matrix(4.222378595280017,0,0,4.222378595280017,119.19099239090554,15.288669757333167)"><path d="M3.95 4.62L3.95 4.62Q4.86 4.62 5.58 4.91L5.58 4.91L5.58 4.91Q6.30 5.21 6.72 5.73L6.72 5.73L6.72 5.73Q6.90 5.95 6.90 6.17L6.90 6.17L6.90 6.17Q6.90 6.41 6.66 6.61L6.66 6.61L6.66 6.61Q6.51 6.72 6.27 6.72L6.27 6.72L6.27 6.72Q5.91 6.72 5.61 6.45L5.61 6.45L5.61 6.45Q5.26 6.13 4.87 6.00L4.87 6.00L4.87 6.00Q4.48 5.87 3.92 5.87L3.92 5.87L3.92 5.87Q3.28 5.87 2.86 6.08L2.86 6.08L2.86 6.08Q2.45 6.30 2.45 6.69L2.45 6.69L2.45 6.69Q2.45 6.97 2.59 7.16L2.59 7.16L2.59 7.16Q2.73 7.35 3.12 7.51L3.12 7.51L3.12 7.51Q3.51 7.67 4.26 7.83L4.26 7.83L4.26 7.83Q5.78 8.13 6.42 8.68L6.42 8.68L6.42 8.68Q7.06 9.23 7.06 10.09L7.06 10.09L7.06 10.09Q7.06 10.74 6.71 11.26L6.71 11.26L6.71 11.26Q6.36 11.79 5.68 12.09L5.68 12.09L5.68 12.09Q5.00 12.39 4.05 12.39L4.05 12.39L4.05 12.39Q3.09 12.39 2.25 12.10L2.25 12.10L2.25 12.10Q1.41 11.80 0.94 11.33L0.94 11.33L0.94 11.33Q0.76 11.14 0.76 10.89L0.76 10.89L0.76 10.89Q0.76 10.56 1.04 10.35L1.04 10.35L1.04 10.35Q1.30 10.15 1.53 10.15L1.53 10.15L1.53 10.15Q1.81 10.15 2.06 10.40L2.06 10.40L2.06 10.40Q2.32 10.70 2.86 10.91L2.86 10.91L2.86 10.91Q3.39 11.13 3.99 11.13L3.99 11.13L3.99 11.13Q4.79 11.13 5.23 10.86L5.23 10.86L5.23 10.86Q5.67 10.60 5.67 10.15L5.67 10.15L5.67 10.15Q5.67 9.72 5.24 9.43L5.24 9.43L5.24 9.43Q4.80 9.14 3.77 8.95L3.77 8.95L3.77 8.95Q1.08 8.43 1.08 6.73L1.08 6.73L1.08 6.73Q1.08 6.05 1.48 5.57L1.48 5.57L1.48 5.57Q1.89 5.10 2.55 4.86L2.55 4.86L2.55 4.86Q3.21 4.62 3.95 4.62L3.95 4.62ZM12.71 4.62L12.71 4.62Q13.79 4.62 14.68 5.13L14.68 5.13L14.68 5.13Q15.57 5.64 16.07 6.53L16.07 6.53L16.07 6.53Q16.58 7.42 16.58 8.51L16.58 8.51L16.58 8.51Q16.58 9.60 16.11 10.49L16.11 10.49L16.11 10.49Q15.64 11.38 14.82 11.89L14.82 11.89L14.82 11.89Q14 12.39 12.99 12.39L12.99 12.39L12.99 12.39Q12.18 12.39 11.48 12.05L11.48 12.05L11.48 12.05Q10.78 11.72 10.29 11.12L10.29 11.12L10.29 14.90L10.29 14.90Q10.29 15.22 10.09 15.41L10.09 15.41L10.09 15.41Q9.90 15.61 9.58 15.61L9.58 15.61L9.58 15.61Q9.27 15.61 9.07 15.41L9.07 15.41L9.07 15.41Q8.86 15.22 8.86 14.90L8.86 14.90L8.86 8.51L8.86 8.51Q8.86 7.42 9.37 6.53L9.37 6.53L9.37 6.53Q9.88 5.64 10.76 5.13L10.76 5.13L10.76 5.13Q11.63 4.62 12.71 4.62L12.71 4.62ZM12.71 11.13L12.71 11.13Q13.41 11.13 13.98 10.79L13.98 10.79L13.98 10.79Q14.55 10.44 14.88 9.85L14.88 9.85L14.88 9.85Q15.20 9.25 15.20 8.51L15.20 8.51L15.20 8.51Q15.20 7.77 14.88 7.17L14.88 7.17L14.88 7.17Q14.55 6.57 13.98 6.22L13.98 6.22L13.98 6.22Q13.41 5.88 12.71 5.88L12.71 5.88L12.71 5.88Q12.01 5.88 11.45 6.22L11.45 6.22L11.45 6.22Q10.88 6.57 10.56 7.17L10.56 7.17L10.56 7.17Q10.23 7.77 10.23 8.51L10.23 8.51L10.23 8.51Q10.23 9.25 10.56 9.85L10.56 9.85L10.56 9.85Q10.88 10.44 11.45 10.79L11.45 10.79L11.45 10.79Q12.01 11.13 12.71 11.13L12.71 11.13ZM25.58 8.39L25.58 8.39Q25.58 8.65 25.40 8.83L25.40 8.83L25.40 8.83Q25.21 9.00 24.93 9.00L24.93 9.00L19.61 9.00L19.61 9.00Q19.77 9.98 20.50 10.58L20.50 10.58L20.50 10.58Q21.24 11.19 22.30 11.19L22.30 11.19L22.30 11.19Q22.72 11.19 23.18 11.03L23.18 11.03L23.18 11.03Q23.63 10.88 23.93 10.65L23.93 10.65L23.93 10.65Q24.12 10.50 24.39 10.50L24.39 10.50L24.39 10.50Q24.65 10.50 24.81 10.64L24.81 10.64L24.81 10.64Q25.06 10.85 25.06 11.12L25.06 11.12L25.06 11.12Q25.06 11.37 24.84 11.54L24.84 11.54L24.84 11.54Q24.36 11.91 23.65 12.15L23.65 12.15L23.65 12.15Q22.95 12.39 22.30 12.39L22.30 12.39L22.30 12.39Q21.15 12.39 20.24 11.89L20.24 11.89L20.24 11.89Q19.33 11.40 18.82 10.51L18.82 10.51L18.82 10.51Q18.31 9.63 18.31 8.51L18.31 8.51L18.31 8.51Q18.31 7.39 18.80 6.50L18.80 6.50L18.80 6.50Q19.28 5.61 20.14 5.12L20.14 5.12L20.14 5.12Q21.00 4.62 22.09 4.62L22.09 4.62L22.09 4.62Q23.17 4.62 23.95 5.10L23.95 5.10L23.95 5.10Q24.74 5.57 25.16 6.43L25.16 6.43L25.16 6.43Q25.58 7.28 25.58 8.39L25.58 8.39ZM22.09 5.82L22.09 5.82Q21.07 5.82 20.43 6.38L20.43 6.38L20.43 6.38Q19.80 6.94 19.63 7.88L19.63 7.88L24.29 7.88L24.29 7.88Q24.16 6.94 23.59 6.38L23.59 6.38L23.59 6.38Q23.02 5.82 22.09 5.82L22.09 5.82ZM31.21 4.61L31.21 4.61Q32.17 4.61 32.94 5.03L32.94 5.03L32.94 5.03Q33.71 5.45 34.15 6.25L34.15 6.25L34.15 6.25Q34.58 7.06 34.58 8.19L34.58 8.19L34.58 11.63L34.58 11.63Q34.58 11.94 34.38 12.14L34.38 12.14L34.38 12.14Q34.17 12.35 33.87 12.35L33.87 12.35L33.87 12.35Q33.56 12.35 33.36 12.14L33.36 12.14L33.36 12.14Q33.15 11.94 33.15 11.63L33.15 11.63L33.15 8.19L33.15 8.19Q33.15 7.06 32.54 6.47L32.54 6.47L32.54 6.47Q31.93 5.89 30.93 5.89L30.93 5.89L30.93 5.89Q30.34 5.89 29.86 6.13L29.86 6.13L29.86 6.13Q29.37 6.37 29.10 6.78L29.10 6.78L29.10 6.78Q28.83 7.18 28.83 7.69L28.83 7.69L28.83 11.63L28.83 11.63Q28.83 11.94 28.63 12.14L28.63 12.14L28.63 12.14Q28.43 12.35 28.11 12.35L28.11 12.35L28.11 12.35Q27.80 12.35 27.60 12.14L27.60 12.14L27.60 12.14Q27.40 11.94 27.40 11.63L27.40 11.63L27.40 5.39L27.40 5.39Q27.40 5.07 27.60 4.87L27.60 4.87L27.60 4.87Q27.80 4.68 28.11 4.68L28.11 4.68L28.11 4.68Q28.43 4.68 28.63 4.87L28.63 4.87L28.63 4.87Q28.83 5.07 28.83 5.39L28.83 5.39L28.83 5.54L28.83 5.54Q29.27 5.10 29.89 4.85L29.89 4.85L29.89 4.85Q30.51 4.61 31.21 4.61L31.21 4.61ZM43.55 1.40L43.55 1.40Q43.88 1.40 44.07 1.60L44.07 1.60L44.07 1.60Q44.27 1.79 44.27 2.11L44.27 2.11L44.27 8.50L44.27 8.50Q44.27 9.59 43.76 10.48L43.76 10.48L43.76 10.48Q43.25 11.37 42.37 11.88L42.37 11.88L42.37 11.88Q41.50 12.39 40.42 12.39L40.42 12.39L40.42 12.39Q39.34 12.39 38.45 11.88L38.45 11.88L38.45 11.88Q37.56 11.37 37.06 10.48L37.06 10.48L37.06 10.48Q36.55 9.59 36.55 8.50L36.55 8.50L36.55 8.50Q36.55 7.41 37.02 6.52L37.02 6.52L37.02 6.52Q37.49 5.63 38.31 5.12L38.31 5.12L38.31 5.12Q39.13 4.62 40.14 4.62L40.14 4.62L40.14 4.62Q40.95 4.62 41.65 4.96L41.65 4.96L41.65 4.96Q42.35 5.29 42.84 5.89L42.84 5.89L42.84 2.11L42.84 2.11Q42.84 1.79 43.04 1.60L43.04 1.60L43.04 1.60Q43.25 1.40 43.55 1.40L43.55 1.40ZM40.42 11.13L40.42 11.13Q41.12 11.13 41.69 10.79L41.69 10.79L41.69 10.79Q42.25 10.44 42.57 9.84L42.57 9.84L42.57 9.84Q42.90 9.24 42.90 8.50L42.90 8.50L42.90 8.50Q42.90 7.76 42.57 7.16L42.57 7.16L42.57 7.16Q42.25 6.57 41.69 6.22L41.69 6.22L41.69 6.22Q41.12 5.88 40.42 5.88L40.42 5.88L40.42 5.88Q39.72 5.88 39.15 6.22L39.15 6.22L39.15 6.22Q38.58 6.57 38.26 7.16L38.26 7.16L38.26 7.16Q37.93 7.76 37.93 8.50L37.93 8.50L37.93 8.50Q37.93 9.24 38.26 9.84L38.26 9.84L38.26 9.84Q38.58 10.44 39.15 10.79L39.15 10.79L39.15 10.79Q39.72 11.13 40.42 11.13L40.42 11.13ZM50.05 10.93L50.05 10.93Q50.30 10.93 50.48 11.13L50.48 11.13L50.48 11.13Q50.65 11.33 50.65 11.63L50.65 11.63L50.65 11.63Q50.65 11.94 50.42 12.14L50.42 12.14L50.42 12.14Q50.19 12.33 49.83 12.33L49.83 12.33L49.57 12.33L49.57 12.33Q48.89 12.33 48.32 11.98L48.32 11.98L48.32 11.98Q47.75 11.62 47.43 11.00L47.43 11.00L47.43 11.00Q47.11 10.39 47.11 9.62L47.11 9.62L47.11 6.16L46.47 6.16L46.47 6.16Q46.17 6.16 45.99 5.99L45.99 5.99L45.99 5.99Q45.81 5.82 45.81 5.57L45.81 5.57L45.81 5.57Q45.81 5.29 45.99 5.12L45.99 5.12L45.99 5.12Q46.17 4.96 46.47 4.96L46.47 4.96L47.11 4.96L47.11 2.94L47.11 2.94Q47.11 2.63 47.31 2.44L47.31 2.44L47.31 2.44Q47.50 2.24 47.81 2.24L47.81 2.24L47.81 2.24Q48.12 2.24 48.31 2.44L48.31 2.44L48.31 2.44Q48.51 2.63 48.51 2.94L48.51 2.94L48.51 4.96L49.70 4.96L49.70 4.96Q49.99 4.96 50.18 5.12L50.18 5.12L50.18 5.12Q50.36 5.29 50.36 5.57L50.36 5.57L50.36 5.57Q50.36 5.82 50.18 5.99L50.18 5.99L50.18 5.99Q49.99 6.16 49.70 6.16L49.70 6.16L48.51 6.16L48.51 9.62L48.51 9.62Q48.51 10.18 48.82 10.56L48.82 10.56L48.82 10.56Q49.13 10.93 49.57 10.93L49.57 10.93L50.05 10.93ZM58.72 4.66L58.72 4.66Q59.04 4.66 59.23 4.86L59.23 4.86L59.23 4.86Q59.43 5.05 59.43 5.38L59.43 5.38L59.43 11.62L59.43 11.62Q59.43 11.93 59.23 12.13L59.23 12.13L59.23 12.13Q59.04 12.33 58.72 12.33L58.72 12.33L58.72 12.33Q58.41 12.33 58.21 12.13L58.21 12.13L58.21 12.13Q58.00 11.93 58.00 11.62L58.00 11.62L58.00 11.47L58.00 11.47Q57.55 11.91 56.94 12.16L56.94 12.16L56.94 12.16Q56.32 12.40 55.62 12.40L55.62 12.40L55.62 12.40Q54.66 12.40 53.89 11.98L53.89 11.98L53.89 11.98Q53.12 11.56 52.68 10.76L52.68 10.76L52.68 10.76Q52.25 9.95 52.25 8.82L52.25 8.82L52.25 5.38L52.25 5.38Q52.25 5.07 52.45 4.86L52.45 4.86L52.45 4.86Q52.65 4.66 52.96 4.66L52.96 4.66L52.96 4.66Q53.27 4.66 53.47 4.86L53.47 4.86L53.47 4.86Q53.68 5.07 53.68 5.38L53.68 5.38L53.68 8.82L53.68 8.82Q53.68 9.95 54.29 10.54L54.29 10.54L54.29 10.54Q54.89 11.12 55.90 11.12L55.90 11.12L55.90 11.12Q56.49 11.12 56.97 10.88L56.97 10.88L56.97 10.88Q57.46 10.64 57.73 10.23L57.73 10.23L57.73 10.23Q58.00 9.83 58.00 9.32L58.00 9.32L58.00 5.38L58.00 5.38Q58.00 5.05 58.21 4.86L58.21 4.86L58.21 4.86Q58.41 4.66 58.72 4.66L58.72 4.66ZM65.76 4.61L65.76 4.61Q66.72 4.61 67.49 5.03L67.49 5.03L67.49 5.03Q68.26 5.45 68.70 6.25L68.70 6.25L68.70 6.25Q69.13 7.06 69.13 8.19L69.13 8.19L69.13 11.63L69.13 11.63Q69.13 11.94 68.93 12.14L68.93 12.14L68.93 12.14Q68.73 12.35 68.42 12.35L68.42 12.35L68.42 12.35Q68.11 12.35 67.91 12.14L67.91 12.14L67.91 12.14Q67.70 11.94 67.70 11.63L67.70 11.63L67.70 8.19L67.70 8.19Q67.70 7.06 67.09 6.47L67.09 6.47L67.09 6.47Q66.49 5.89 65.48 5.89L65.48 5.89L65.48 5.89Q64.89 5.89 64.41 6.13L64.41 6.13L64.41 6.13Q63.92 6.37 63.65 6.78L63.65 6.78L63.65 6.78Q63.38 7.18 63.38 7.69L63.38 7.69L63.38 11.63L63.38 11.63Q63.38 11.94 63.18 12.14L63.18 12.14L63.18 12.14Q62.99 12.35 62.66 12.35L62.66 12.35L62.66 12.35Q62.36 12.35 62.15 12.14L62.15 12.14L62.15 12.14Q61.95 11.94 61.95 11.63L61.95 11.63L61.95 5.39L61.95 5.39Q61.95 5.07 62.15 4.87L62.15 4.87L62.15 4.87Q62.36 4.68 62.66 4.68L62.66 4.68L62.66 4.68Q62.99 4.68 63.18 4.87L63.18 4.87L63.18 4.87Q63.38 5.07 63.38 5.39L63.38 5.39L63.38 5.54L63.38 5.54Q63.83 5.10 64.44 4.85L64.44 4.85L64.44 4.85Q65.06 4.61 65.76 4.61L65.76 4.61ZM78.37 8.39L78.37 8.39Q78.37 8.65 78.19 8.83L78.19 8.83L78.19 8.83Q78.01 9.00 77.73 9.00L77.73 9.00L72.41 9.00L72.41 9.00Q72.56 9.98 73.30 10.58L73.30 10.58L73.30 10.58Q74.03 11.19 75.10 11.19L75.10 11.19L75.10 11.19Q75.52 11.19 75.97 11.03L75.97 11.03L75.97 11.03Q76.43 10.88 76.72 10.65L76.72 10.65L76.72 10.65Q76.92 10.50 77.18 10.50L77.18 10.50L77.18 10.50Q77.45 10.50 77.60 10.64L77.60 10.64L77.60 10.64Q77.85 10.85 77.85 11.12L77.85 11.12L77.85 11.12Q77.85 11.37 77.63 11.54L77.63 11.54L77.63 11.54Q77.15 11.91 76.45 12.15L76.45 12.15L76.45 12.15Q75.74 12.39 75.10 12.39L75.10 12.39L75.10 12.39Q73.95 12.39 73.04 11.89L73.04 11.89L73.04 11.89Q72.13 11.40 71.62 10.51L71.62 10.51L71.62 10.51Q71.11 9.63 71.11 8.51L71.11 8.51L71.11 8.51Q71.11 7.39 71.59 6.50L71.59 6.50L71.59 6.50Q72.07 5.61 72.93 5.12L72.93 5.12L72.93 5.12Q73.79 4.62 74.89 4.62L74.89 4.62L74.89 4.62Q75.96 4.62 76.75 5.10L76.75 5.10L76.75 5.10Q77.53 5.57 77.95 6.43L77.95 6.43L77.95 6.43Q78.37 7.28 78.37 8.39L78.37 8.39ZM74.89 5.82L74.89 5.82Q73.86 5.82 73.23 6.38L73.23 6.38L73.23 6.38Q72.59 6.94 72.42 7.88L72.42 7.88L77.08 7.88L77.08 7.88Q76.96 6.94 76.38 6.38L76.38 6.38L76.38 6.38Q75.81 5.82 74.89 5.82L74.89 5.82Z"></path></g><!----><g data-v-423bf9ae="" id="2d301625-e5fb-4a0c-96c0-05fbd330208d" transform="matrix(1.0666666666666667,0,0,1.0666666666666667,0.7999999999999972,0.7999999999999972)" stroke="none" fill="#25BBA8"><path d="M48 16c-17.644 0-32 14.356-32 32 0 17.645 14.356 32 32 32 17.645 0 32-14.355 32-32 0-17.644-14.352-32-32-32zm2 49.58V68c0 1.1-.896 2-2 2s-2-.9-2-2v-2.443c-5.104-.752-8.408-4.164-8.408-8.984a2 2 0 0 1 4 0c0 4.768 5.028 5.14 6.572 5.14s6.58-.368 6.58-5.14c0-2.984-1.164-3.664-6.084-6.092l-2.752-1.369c-4.828-2.379-8.312-4.099-8.312-9.675 0-4.848 3.3-8.288 8.408-9.04V28a2 2 0 0 1 4 0v2.372c5.225.66 8.62 4.12 8.62 9.064 0 1.104-.903 2-2 2a2 2 0 0 1-2-2c0-4.828-4.94-5.204-6.456-5.204-3.176 0-6.572 1.368-6.572 5.204 0 2.976 1.16 3.664 6.084 6.092l2.755 1.368c4.82 2.379 8.305 4.096 8.305 9.676.004 4.912-3.452 8.356-8.74 9.008z"></path><path d="M48 0C21.492 0 0 21.492 0 48s21.492 48 48 48c26.512 0 48-21.492 48-48S74.512 0 48 0zm0 84c-19.884 0-36-16.116-36-36s16.116-36 36-36 36 16.116 36 36-16.116 36-36 36z"></path></g><!----></svg>